<svg xmlns="http://www.w3.org/2000/svg" viewBox="0 0 32 32">
  <rect width="32" height="32" rx="7" fill="#0d0d0d"/>
  <!-- Row 0: all past -->
  <rect x="3.75" y="3.75" width="5" height="5" rx="1" fill="#4e4e4e"/>
  <rect x="10.25" y="3.75" width="5" height="5" rx="1" fill="#4e4e4e"/>
  <rect x="16.75" y="3.75" width="5" height="5" rx="1" fill="#4e4e4e"/>
  <rect x="23.25" y="3.75" width="5" height="5" rx="1" fill="#4e4e4e"/>
  <!-- Row 1: all past -->
  <rect x="3.75" y="10.25" width="5" height="5" rx="1" fill="#4e4e4e"/>
  <rect x="10.25" y="10.25" width="5" height="5" rx="1" fill="#4e4e4e"/>
  <rect x="16.75" y="10.25" width="5" height="5" rx="1" fill="#4e4e4e"/>
  <rect x="23.25" y="10.25" width="5" height="5" rx="1" fill="#4e4e4e"/>
  <!-- Row 2: 1 past · 1 current (white) · 2 future -->
  <rect x="3.75" y="16.75" width="5" height="5" rx="1" fill="#4e4e4e"/>
  <rect x="10.25" y="16.75" width="5" height="5" rx="1" fill="#ffffff"/>
  <rect x="16.75" y="16.75" width="5" height="5" rx="1" fill="#252525"/>
  <rect x="23.25" y="16.75" width="5" height="5" rx="1" fill="#252525"/>
  <!-- Row 3: all future -->
  <rect x="3.75" y="23.25" width="5" height="5" rx="1" fill="#1e1e1e"/>
  <rect x="10.25" y="23.25" width="5" height="5" rx="1" fill="#1e1e1e"/>
  <rect x="16.75" y="23.25" width="5" height="5" rx="1" fill="#1e1e1e"/>
  <rect x="23.25" y="23.25" width="5" height="5" rx="1" fill="#1e1e1e"/>
</svg>
